<svg version="1.1" id="Layer_1" xmlns="http://www.w3.org/2000/svg" xmlns:xlink="http://www.w3.org/1999/xlink" x="0px" y="0px"
	 width="100%" viewBox="0 0 866 650" enable-background="new 0 0 866 650" xml:space="preserve">
<path fill="#FFFFFF" opacity="1.000000" stroke="none" 
	d="
M525.000000,651.000000 
	C350.000000,651.000000 175.500000,651.000000 1.000000,651.000000 
	C1.000000,434.333344 1.000000,217.666672 1.000000,1.000000 
	C289.666656,1.000000 578.333313,1.000000 867.000000,1.000000 
	C867.000000,217.666672 867.000000,434.333344 867.000000,651.000000 
	C753.166687,651.000000 639.333313,651.000000 525.000000,651.000000 
M166.804962,226.433792 
	C162.486465,226.745346 158.158646,226.962173 153.851273,227.386566 
	C141.901627,228.564011 138.190567,232.683868 138.188263,244.708862 
	C138.180222,286.525391 138.301193,328.342468 138.099655,370.157990 
	C138.058899,378.616669 140.609894,385.725555 145.722717,392.257050 
	C154.445786,403.400513 163.307281,414.455109 171.542984,425.953583 
	C176.794037,433.285004 183.264267,435.902802 192.068085,435.345001 
	C238.440659,432.406769 284.830811,429.746246 331.214233,426.978760 
	C342.524597,426.303925 346.854523,421.635559 346.856049,410.124634 
	C346.862427,362.143921 346.784546,314.162903 346.957703,266.182831 
	C346.977966,260.567017 345.121033,256.799957 340.556091,253.658569 
	C326.158478,243.750717 311.891510,233.651093 297.655640,223.511002 
	C291.659729,219.240143 285.068359,217.718048 277.848053,218.250320 
	C241.143295,220.956253 204.437286,223.645065 166.804962,226.433792 
M457.701111,366.621674 
	C460.108124,366.621674 462.515137,366.621674 464.845764,366.621674 
	C464.845764,338.107178 464.845764,310.367859 464.845764,282.437134 
	C460.113586,282.437134 455.674805,282.437134 450.486755,282.437134 
	C450.486755,301.342285 450.486755,320.117767 450.486755,338.893250 
	C448.710205,338.055115 447.932831,337.048981 447.188507,336.018982 
	C435.003113,319.156433 422.839172,302.278290 410.604401,285.451630 
	C409.703644,284.212799 408.377594,282.569672 407.114227,282.441101 
	C403.236542,282.046387 399.293152,282.297424 395.496948,282.297424 
	C395.496948,310.774719 395.496948,338.497803 395.496948,366.323822 
	C400.428467,366.323822 405.007812,366.323822 410.112610,366.323822 
	C410.112610,347.316589 410.112610,328.641510 410.112610,308.594452 
	C412.503448,311.816162 414.077179,313.886353 415.598267,315.994537 
	C426.894867,331.651215 438.251617,347.265533 449.404358,363.024170 
	C451.375824,365.809845 453.492401,367.172729 457.701111,366.621674 
M480.012360,354.422485 
	C487.055023,365.701202 497.798126,368.832153 510.178741,367.627319 
	C522.183350,366.459076 531.286865,360.340942 534.383362,348.546661 
	C536.307800,341.216766 536.640808,333.028992 535.689453,325.478088 
	C533.846313,310.849792 522.932129,302.267487 507.161102,301.338898 
	C493.088654,300.510345 481.159576,308.226440 477.216400,321.313690 
	C473.895081,332.337097 474.242218,343.299164 480.012360,354.422485 
M668.357849,350.765839 
	C669.216675,343.248291 671.190613,335.657715 670.704224,328.228241 
	C669.662598,312.317749 659.012939,302.780457 642.574036,301.414062 
	C627.722534,300.179626 615.160889,308.356232 611.574646,322.449310 
	C610.167847,327.977448 609.848328,333.986237 610.174072,339.711273 
	C610.997498,354.183167 619.916138,364.581207 632.785400,367.062775 
	C648.990173,370.187531 661.171326,364.798340 668.357849,350.765839 
M720.255066,302.040466 
	C709.472046,300.141266 700.231079,302.185364 693.760254,313.981689 
	C693.760254,309.172882 693.760254,306.088379 693.760254,303.014252 
	C688.973450,303.014252 684.558899,303.014252 680.092224,303.014252 
	C680.092224,324.238586 680.092224,345.178741 680.092224,366.328491 
	C684.838379,366.328491 689.385925,366.328491 694.282837,366.328491 
	C694.282837,363.057495 694.251343,360.086700 694.288513,357.116791 
	C694.417725,346.801025 694.097839,336.450226 694.864868,326.181183 
	C695.474365,318.020782 701.704224,313.515747 709.679932,314.087219 
	C717.170349,314.623901 720.975220,319.032593 721.100769,327.621735 
	C721.212646,335.281555 721.131714,342.944214 721.134094,350.605621 
	C721.135742,355.845520 721.134399,361.085388 721.134399,366.273346 
	C726.428467,366.273346 731.009705,366.273346 735.810120,366.273346 
	C735.810120,351.281036 736.183960,336.625854 735.676819,322.001251 
	C735.346680,312.482330 730.895264,305.122955 720.255066,302.040466 
M572.343140,366.889557 
	C574.137329,366.652527 575.931519,366.415527 577.767090,366.173065 
	C577.767090,362.280518 577.767090,358.692780 577.767090,355.000275 
	C575.843750,355.000275 574.196838,354.990051 572.550110,355.002197 
	C567.803589,355.037170 564.676208,352.701996 564.554260,348.004364 
	C564.270935,337.091583 564.463989,326.166412 564.463989,314.811707 
	C569.025269,314.811707 573.287903,314.811707 577.708862,314.811707 
	C577.708862,310.670746 577.708862,306.972290 577.708862,302.943359 
	C573.119202,302.943359 568.837646,302.943359 564.165649,302.943359 
	C564.165649,297.512207 564.165649,292.409637 564.165649,287.374207 
	C559.198975,287.374207 554.638611,287.374207 549.795410,287.374207 
	C549.795410,292.676117 549.795410,297.622223 549.795410,303.151550 
	C546.318542,303.151550 543.117371,303.151550 540.154419,303.151550 
	C540.154419,307.342987 540.154419,310.933044 540.154419,314.993103 
	C543.531616,314.993103 546.590027,314.993103 549.915466,314.993103 
	C549.915466,326.606415 549.889832,337.730927 549.922363,348.855255 
	C549.957703,360.939667 554.380005,365.736481 566.433044,366.796295 
	C568.086182,366.941650 569.757751,366.876556 572.343140,366.889557 
M600.777344,303.143860 
	C596.191589,303.143860 591.605835,303.143860 586.909668,303.143860 
	C586.909668,324.223755 586.909668,345.241486 586.909668,366.234863 
	C591.768066,366.234863 596.306396,366.234863 601.015442,366.234863 
	C601.015442,345.247040 601.015442,324.634949 600.777344,303.143860 
M591.448303,274.997925 
	C587.066223,276.673859 584.644592,279.822540 585.220581,284.535248 
	C585.700439,288.461639 588.078552,291.796906 592.104553,291.824524 
	C595.022705,291.844513 599.037842,290.565399 600.577515,288.432037 
	C602.125488,286.287109 602.061035,282.103607 601.179016,279.291534 
	C599.956238,275.393250 596.173340,274.370850 591.448303,274.997925 
z"/>
<path fill="#050505" opacity="1.000000" stroke="none" 
	d="
M167.268341,226.386841 
	C204.437286,223.645065 241.143295,220.956253 277.848053,218.250320 
	C285.068359,217.718048 291.659729,219.240143 297.655640,223.511002 
	C311.891510,233.651093 326.158478,243.750717 340.556091,253.658569 
	C345.121033,256.799957 346.977966,260.567017 346.957703,266.182831 
	C346.784546,314.162903 346.862427,362.143921 346.856049,410.124634 
	C346.854523,421.635559 342.524597,426.303925 331.214233,426.978760 
	C284.830811,429.746246 238.440659,432.406769 192.068085,435.345001 
	C183.264267,435.902802 176.794037,433.285004 171.542984,425.953583 
	C163.307281,414.455109 154.445786,403.400513 145.722717,392.257050 
	C140.609894,385.725555 138.058899,378.616669 138.099655,370.157990 
	C138.301193,328.342468 138.180222,286.525391 138.188263,244.708862 
	C138.190567,232.683868 141.901627,228.564011 153.851273,227.386566 
	C158.158646,226.962173 162.486465,226.745346 167.268341,226.386841 
M332.263184,348.500183 
	C332.263123,324.505005 332.307800,300.509705 332.236450,276.514740 
	C332.214233,269.043396 330.708435,267.593170 323.420135,267.987030 
	C298.968994,269.308380 274.521790,270.705719 250.076874,272.138763 
	C229.623291,273.337860 209.178207,274.684021 188.722076,275.835480 
	C183.990860,276.101807 181.725815,278.342712 181.599167,282.970398 
	C181.558182,284.467804 181.441620,285.964508 181.441238,287.461517 
	C181.431854,324.120728 181.430359,360.779907 181.437393,397.439117 
	C181.438217,401.770172 181.313248,406.112244 181.572372,410.429626 
	C181.936981,416.504761 184.317139,418.810394 190.390564,418.855682 
	C194.543793,418.886658 198.700058,418.380432 202.856430,418.139709 
	C242.435196,415.847412 282.015472,413.580597 321.592377,411.256744 
	C330.639008,410.725525 332.194458,409.093933 332.236725,399.989868 
	C332.314850,383.160278 332.261658,366.330139 332.263184,348.500183 
M277.464325,230.689789 
	C239.126755,233.460312 200.787827,236.212311 162.455688,239.056168 
	C160.540039,239.198288 158.683502,240.137268 155.367828,241.136795 
	C161.770752,246.295059 167.146194,250.155228 171.957916,254.622589 
	C177.799042,260.045685 184.418793,261.462067 192.142395,260.957611 
	C226.184525,258.734131 260.245392,256.797913 294.297760,254.729980 
	C301.801605,254.274292 309.298615,253.705688 318.186371,253.093491 
	C315.929718,251.159225 314.901062,250.151062 313.749451,249.311523 
	C307.566071,244.803665 301.273193,240.442078 295.173401,235.824844 
	C290.169434,232.037079 284.664032,230.248581 277.464325,230.689789 
z"/>
<path fill="#060606" opacity="1.000000" stroke="none" 
	d="
M457.259064,366.622650 
	C453.492401,367.172729 451.375824,365.809845 449.404358,363.024170 
	C438.251617,347.265533 426.894867,331.651215 415.598267,315.994537 
	C414.077179,313.886353 412.503448,311.816162 410.112610,308.594452 
	C410.112610,328.641510 410.112610,347.316589 410.112610,366.323822 
	C405.007812,366.323822 400.428467,366.323822 395.496948,366.323822 
	C395.496948,338.497803 395.496948,310.774719 395.496948,282.297424 
	C399.293152,282.297424 403.236542,282.046387 407.114227,282.441101 
	C408.377594,282.569672 409.703644,284.212799 410.604401,285.451630 
	C422.839172,302.278290 435.003113,319.156433 447.188507,336.018982 
	C447.932831,337.048981 448.710205,338.055115 450.486755,338.893250 
	C450.486755,320.117767 450.486755,301.342285 450.486755,282.437134 
	C455.674805,282.437134 460.113586,282.437134 464.845764,282.437134 
	C464.845764,310.367859 464.845764,338.107178 464.845764,366.621674 
	C462.515137,366.621674 460.108124,366.621674 457.259064,366.622650 
z"/>
<path fill="#070707" opacity="1.000000" stroke="none" 
	d="
M479.854279,354.091309 
	C474.242218,343.299164 473.895081,332.337097 477.216400,321.313690 
	C481.159576,308.226440 493.088654,300.510345 507.161102,301.338898 
	C522.932129,302.267487 533.846313,310.849792 535.689453,325.478088 
	C536.640808,333.028992 536.307800,341.216766 534.383362,348.546661 
	C531.286865,360.340942 522.183350,366.459076 510.178741,367.627319 
	C497.798126,368.832153 487.055023,365.701202 479.854279,354.091309 
M495.274078,351.205933 
	C504.812805,359.386810 516.898804,356.135376 520.443176,344.271057 
	C522.641479,336.912476 522.491394,329.501099 519.394409,322.350403 
	C516.988037,316.794342 512.704712,313.888550 506.587616,313.726410 
	C500.354340,313.561218 495.370422,315.884430 492.897156,321.707001 
	C488.707703,331.569702 488.669708,341.363220 495.274078,351.205933 
z"/>
<path fill="#070707" opacity="1.000000" stroke="none" 
	d="
M668.201050,351.114716 
	C661.171326,364.798340 648.990173,370.187531 632.785400,367.062775 
	C619.916138,364.581207 610.997498,354.183167 610.174072,339.711273 
	C609.848328,333.986237 610.167847,327.977448 611.574646,322.449310 
	C615.160889,308.356232 627.722534,300.179626 642.574036,301.414062 
	C659.012939,302.780457 669.662598,312.317749 670.704224,328.228241 
	C671.190613,335.657715 669.216675,343.248291 668.201050,351.114716 
M654.996094,324.860382 
	C651.787659,316.547760 647.308350,313.352112 639.432007,313.756592 
	C632.268799,314.124451 627.164124,318.174683 625.899780,326.581909 
	C624.988525,332.641235 625.284546,339.166870 626.507751,345.186707 
	C627.878174,351.930969 633.936707,355.717255 640.508057,355.698151 
	C647.396118,355.678101 653.494934,351.756683 654.724121,344.800842 
	C655.821289,338.591919 655.092957,332.060455 654.996094,324.860382 
z"/>
<path fill="#060606" opacity="1.000000" stroke="none" 
	d="
M720.654297,302.113586 
	C730.895264,305.122955 735.346680,312.482330 735.676819,322.001251 
	C736.183960,336.625854 735.810120,351.281036 735.810120,366.273346 
	C731.009705,366.273346 726.428467,366.273346 721.134399,366.273346 
	C721.134399,361.085388 721.135742,355.845520 721.134094,350.605621 
	C721.131714,342.944214 721.212646,335.281555 721.100769,327.621735 
	C720.975220,319.032593 717.170349,314.623901 709.679932,314.087219 
	C701.704224,313.515747 695.474365,318.020782 694.864868,326.181183 
	C694.097839,336.450226 694.417725,346.801025 694.288513,357.116791 
	C694.251343,360.086700 694.282837,363.057495 694.282837,366.328491 
	C689.385925,366.328491 684.838379,366.328491 680.092224,366.328491 
	C680.092224,345.178741 680.092224,324.238586 680.092224,303.014252 
	C684.558899,303.014252 688.973450,303.014252 693.760254,303.014252 
	C693.760254,306.088379 693.760254,309.172882 693.760254,313.981689 
	C700.231079,302.185364 709.472046,300.141266 720.654297,302.113586 
z"/>
<path fill="#040404" opacity="1.000000" stroke="none" 
	d="
M571.881958,366.899231 
	C569.757751,366.876556 568.086182,366.941650 566.433044,366.796295 
	C554.380005,365.736481 549.957703,360.939667 549.922363,348.855255 
	C549.889832,337.730927 549.915466,326.606415 549.915466,314.993103 
	C546.590027,314.993103 543.531616,314.993103 540.154419,314.993103 
	C540.154419,310.933044 540.154419,307.342987 540.154419,303.151550 
	C543.117371,303.151550 546.318542,303.151550 549.795410,303.151550 
	C549.795410,297.622223 549.795410,292.676117 549.795410,287.374207 
	C554.638611,287.374207 559.198975,287.374207 564.165649,287.374207 
	C564.165649,292.409637 564.165649,297.512207 564.165649,302.943359 
	C568.837646,302.943359 573.119202,302.943359 577.708862,302.943359 
	C577.708862,306.972290 577.708862,310.670746 577.708862,314.811707 
	C573.287903,314.811707 569.025269,314.811707 564.463989,314.811707 
	C564.463989,326.166412 564.270935,337.091583 564.554260,348.004364 
	C564.676208,352.701996 567.803589,355.037170 572.550110,355.002197 
	C574.196838,354.990051 575.843750,355.000275 577.767090,355.000275 
	C577.767090,358.692780 577.767090,362.280518 577.767090,366.173065 
	C575.931519,366.415527 574.137329,366.652527 571.881958,366.899231 
z"/>
<path fill="#020202" opacity="1.000000" stroke="none" 
	d="
M600.896362,303.583374 
	C601.015442,324.634949 601.015442,345.247040 601.015442,366.234863 
	C596.306396,366.234863 591.768066,366.234863 586.909668,366.234863 
	C586.909668,345.241486 586.909668,324.223755 586.909668,303.143860 
	C591.605835,303.143860 596.191589,303.143860 600.896362,303.583374 
z"/>
<path fill="#0A0A0A" opacity="1.000000" stroke="none" 
	d="
M591.811890,274.958679 
	C596.173340,274.370850 599.956238,275.393250 601.179016,279.291534 
	C602.061035,282.103607 602.125488,286.287109 600.577515,288.432037 
	C599.037842,290.565399 595.022705,291.844513 592.104553,291.824524 
	C588.078552,291.796906 585.700439,288.461639 585.220581,284.535248 
	C584.644592,279.822540 587.066223,276.673859 591.811890,274.958679 
z"/>
<path fill="#FBFBFB" opacity="1.000000" stroke="none" 
	d="
M332.263184,349.000183 
	C332.261658,366.330139 332.314850,383.160278 332.236725,399.989868 
	C332.194458,409.093933 330.639008,410.725525 321.592377,411.256744 
	C282.015472,413.580597 242.435196,415.847412 202.856430,418.139709 
	C198.700058,418.380432 194.543793,418.886658 190.390564,418.855682 
	C184.317139,418.810394 181.936981,416.504761 181.572372,410.429626 
	C181.313248,406.112244 181.438217,401.770172 181.437393,397.439117 
	C181.430359,360.779907 181.431854,324.120728 181.441238,287.461517 
	C181.441620,285.964508 181.558182,284.467804 181.599167,282.970398 
	C181.725815,278.342712 183.990860,276.101807 188.722076,275.835480 
	C209.178207,274.684021 229.623291,273.337860 250.076874,272.138763 
	C274.521790,270.705719 298.968994,269.308380 323.420135,267.987030 
	C330.708435,267.593170 332.214233,269.043396 332.236450,276.514740 
	C332.307800,300.509705 332.263123,324.505005 332.263184,349.000183 
M224.750870,398.233368 
	C229.218246,397.880005 233.722336,397.768524 238.141464,397.097443 
	C241.736115,396.551605 243.939377,394.223938 244.228439,390.133575 
	C240.871445,389.367004 237.557114,388.876648 234.460159,387.775146 
	C233.175613,387.318298 231.468414,385.563202 231.457077,384.384064 
	C231.270767,364.985352 231.324707,345.584320 231.324707,326.183838 
	C233.227310,327.410553 234.266663,329.003876 235.288437,330.608337 
	C247.352020,349.551361 259.372559,368.521942 271.489960,387.430481 
	C278.564301,398.469543 284.625580,400.176575 296.754120,395.299622 
	C300.003876,393.992859 301.184387,392.361115 301.161377,388.743988 
	C300.985657,361.094299 301.063477,333.443024 301.062439,305.792236 
	C301.062378,303.988831 301.062408,302.185425 301.062408,300.486420 
	C311.834564,297.935059 311.931244,297.843750 310.920685,290.882538 
	C301.039551,291.533661 291.091370,291.994995 281.188416,292.933685 
	C277.001434,293.330536 274.957947,296.267181 275.208405,300.968719 
	C278.840149,301.494568 282.383881,302.007660 285.784576,302.500061 
	C285.784576,321.469971 285.784576,340.116638 285.784576,359.604736 
	C284.533752,357.762024 283.788025,356.696899 283.076080,355.609680 
	C270.679077,336.678314 258.214081,317.790619 245.965775,298.763458 
	C243.998749,295.707794 241.929886,294.599060 238.343246,294.949341 
	C229.728912,295.790649 221.073990,296.207062 212.442978,296.890198 
	C206.775391,297.338776 204.621002,300.079681 204.949707,306.642578 
	C208.227539,306.902344 211.591156,307.168884 214.949829,307.435028 
	C214.949829,335.521210 214.949829,362.972107 214.949829,390.312653 
	C210.933929,392.668579 204.064255,391.143768 204.420914,398.731354 
	C204.961060,398.935394 205.420502,399.272675 205.862579,399.251251 
	C211.847748,398.961670 217.830490,398.622192 224.750870,398.233368 
z"/>
<path fill="#FBFBFB" opacity="1.000000" stroke="none" 
	d="
M277.946716,230.645996 
	C284.664032,230.248581 290.169434,232.037079 295.173401,235.824844 
	C301.273193,240.442078 307.566071,244.803665 313.749451,249.311523 
	C314.901062,250.151062 315.929718,251.159225 318.186371,253.093491 
	C309.298615,253.705688 301.801605,254.274292 294.297760,254.729980 
	C260.245392,256.797913 226.184525,258.734131 192.142395,260.957611 
	C184.418793,261.462067 177.799042,260.045685 171.957916,254.622589 
	C167.146194,250.155228 161.770752,246.295059 155.367828,241.136795 
	C158.683502,240.137268 160.540039,239.198288 162.455688,239.056168 
	C200.787827,236.212311 239.126755,233.460312 277.946716,230.645996 
z"/>
<path fill="#FAFAFA" opacity="1.000000" stroke="none" 
	d="
M495.023499,350.931427 
	C488.669708,341.363220 488.707703,331.569702 492.897156,321.707001 
	C495.370422,315.884430 500.354340,313.561218 506.587616,313.726410 
	C512.704712,313.888550 516.988037,316.794342 519.394409,322.350403 
	C522.491394,329.501099 522.641479,336.912476 520.443176,344.271057 
	C516.898804,356.135376 504.812805,359.386810 495.023499,350.931427 
z"/>
<path fill="#FAFAFA" opacity="1.000000" stroke="none" 
	d="
M655.083130,325.265869 
	C655.092957,332.060455 655.821289,338.591919 654.724121,344.800842 
	C653.494934,351.756683 647.396118,355.678101 640.508057,355.698151 
	C633.936707,355.717255 627.878174,351.930969 626.507751,345.186707 
	C625.284546,339.166870 624.988525,332.641235 625.899780,326.581909 
	C627.164124,318.174683 632.268799,314.124451 639.432007,313.756592 
	C647.308350,313.352112 651.787659,316.547760 655.083130,325.265869 
z"/>
<path fill="#040404" opacity="1.000000" stroke="none" 
	d="
M224.282349,398.264221 
	C217.830490,398.622192 211.847748,398.961670 205.862579,399.251251 
	C205.420502,399.272675 204.961060,398.935394 204.420914,398.731354 
	C204.064255,391.143768 210.933929,392.668579 214.949829,390.312653 
	C214.949829,362.972107 214.949829,335.521210 214.949829,307.435028 
	C211.591156,307.168884 208.227539,306.902344 204.949707,306.642578 
	C204.621002,300.079681 206.775391,297.338776 212.442978,296.890198 
	C221.073990,296.207062 229.728912,295.790649 238.343246,294.949341 
	C241.929886,294.599060 243.998749,295.707794 245.965775,298.763458 
	C258.214081,317.790619 270.679077,336.678314 283.076080,355.609680 
	C283.788025,356.696899 284.533752,357.762024 285.784576,359.604736 
	C285.784576,340.116638 285.784576,321.469971 285.784576,302.500061 
	C282.383881,302.007660 278.840149,301.494568 275.208405,300.968719 
	C274.957947,296.267181 277.001434,293.330536 281.188416,292.933685 
	C291.091370,291.994995 301.039551,291.533661 310.920685,290.882538 
	C311.931244,297.843750 311.834564,297.935059 301.062408,300.486420 
	C301.062408,302.185425 301.062378,303.988831 301.062439,305.792236 
	C301.063477,333.443024 300.985657,361.094299 301.161377,388.743988 
	C301.184387,392.361115 300.003876,393.992859 296.754120,395.299622 
	C284.625580,400.176575 278.564301,398.469543 271.489960,387.430481 
	C259.372559,368.521942 247.352020,349.551361 235.288437,330.608337 
	C234.266663,329.003876 233.227310,327.410553 231.324707,326.183838 
	C231.324707,345.584320 231.270767,364.985352 231.457077,384.384064 
	C231.468414,385.563202 233.175613,387.318298 234.460159,387.775146 
	C237.557114,388.876648 240.871445,389.367004 244.228439,390.133575 
	C243.939377,394.223938 241.736115,396.551605 238.141464,397.097443 
	C233.722336,397.768524 229.218246,397.880005 224.282349,398.264221 
z"/>
</svg>